<svg width="202" height="36" viewBox="0 0 202 36" fill="none" xmlns="http://www.w3.org/2000/svg">
<path d="M56.672 9.152L52.28 26H47.312L44.624 14.912L41.84 26H36.872L32.6 9.152H36.992L39.416 21.416L42.416 9.152H46.928L49.808 21.416L52.256 9.152H56.672ZM71.3542 19.088C71.3542 19.472 71.3302 19.872 71.2822 20.288H61.9942C62.0582 21.12 62.3222 21.76 62.7862 22.208C63.2662 22.64 63.8502 22.856 64.5382 22.856C65.5622 22.856 66.2742 22.424 66.6742 21.56H71.0422C70.8182 22.44 70.4102 23.232 69.8182 23.936C69.2422 24.64 68.5142 25.192 67.6342 25.592C66.7542 25.992 65.7702 26.192 64.6822 26.192C63.3702 26.192 62.2022 25.912 61.1782 25.352C60.1542 24.792 59.3542 23.992 58.7782 22.952C58.2022 21.912 57.9142 20.696 57.9142 19.304C57.9142 17.912 58.1942 16.696 58.7542 15.656C59.3302 14.616 60.1302 13.816 61.1542 13.256C62.1782 12.696 63.3542 12.416 64.6822 12.416C65.9782 12.416 67.1302 12.688 68.1382 13.232C69.1462 13.776 69.9302 14.552 70.4902 15.56C71.0662 16.568 71.3542 17.744 71.3542 19.088ZM67.1542 18.008C67.1542 17.304 66.9142 16.744 66.4342 16.328C65.9542 15.912 65.3542 15.704 64.6342 15.704C63.9462 15.704 63.3622 15.904 62.8822 16.304C62.4182 16.704 62.1302 17.272 62.0182 18.008H67.1542ZM77.6233 14.504C78.0073 13.88 78.5593 13.376 79.2793 12.992C79.9993 12.608 80.8233 12.416 81.7513 12.416C82.8553 12.416 83.8553 12.696 84.7513 13.256C85.6473 13.816 86.3513 14.616 86.8633 15.656C87.3913 16.696 87.6553 17.904 87.6553 19.28C87.6553 20.656 87.3913 21.872 86.8633 22.928C86.3513 23.968 85.6473 24.776 84.7513 25.352C83.8553 25.912 82.8553 26.192 81.7513 26.192C80.8073 26.192 79.9833 26.008 79.2793 25.64C78.5753 25.256 78.0233 24.752 77.6233 24.128V26H73.5193V8.24H77.6233V14.504ZM83.4793 19.28C83.4793 18.256 83.1913 17.456 82.6153 16.88C82.0553 16.288 81.3593 15.992 80.5273 15.992C79.7113 15.992 79.0153 16.288 78.4393 16.88C77.8793 17.472 77.5993 18.28 77.5993 19.304C77.5993 20.328 77.8793 21.136 78.4393 21.728C79.0153 22.32 79.7113 22.616 80.5273 22.616C81.3433 22.616 82.0393 22.32 82.6153 21.728C83.1913 21.12 83.4793 20.304 83.4793 19.28ZM102.648 14.576C102.648 15.552 102.424 16.448 101.976 17.264C101.528 18.064 100.84 18.712 99.9123 19.208C98.9843 19.704 97.8323 19.952 96.4563 19.952H93.9123V26H89.8083V9.152H96.4563C97.8003 9.152 98.9363 9.384 99.8643 9.848C100.792 10.312 101.488 10.952 101.952 11.768C102.416 12.584 102.648 13.52 102.648 14.576ZM96.1443 16.688C96.9283 16.688 97.5123 16.504 97.8963 16.136C98.2803 15.768 98.4723 15.248 98.4723 14.576C98.4723 13.904 98.2803 13.384 97.8963 13.016C97.5123 12.648 96.9283 12.464 96.1443 12.464H93.9123V16.688H96.1443ZM108.889 14.84C109.369 14.104 109.969 13.528 110.689 13.112C111.409 12.68 112.209 12.464 113.089 12.464V16.808H111.961C110.937 16.808 110.169 17.032 109.657 17.48C109.145 17.912 108.889 18.68 108.889 19.784V26H104.785V12.608H108.889V14.84ZM121.147 26.192C119.835 26.192 118.651 25.912 117.595 25.352C116.555 24.792 115.731 23.992 115.123 22.952C114.531 21.912 114.235 20.696 114.235 19.304C114.235 17.928 114.539 16.72 115.146 15.68C115.755 14.624 116.587 13.816 117.643 13.256C118.699 12.696 119.883 12.416 121.195 12.416C122.507 12.416 123.691 12.696 124.747 13.256C125.803 13.816 126.635 14.624 127.243 15.68C127.851 16.72 128.155 17.928 128.155 19.304C128.155 20.68 127.843 21.896 127.219 22.952C126.611 23.992 125.771 24.792 124.699 25.352C123.643 25.912 122.459 26.192 121.147 26.192ZM121.147 22.64C121.931 22.64 122.595 22.352 123.139 21.776C123.699 21.2 123.979 20.376 123.979 19.304C123.979 18.232 123.707 17.408 123.163 16.832C122.635 16.256 121.979 15.968 121.195 15.968C120.395 15.968 119.731 16.256 119.203 16.832C118.675 17.392 118.411 18.216 118.411 19.304C118.411 20.376 118.667 21.2 119.179 21.776C119.707 22.352 120.363 22.64 121.147 22.64Z" fill="#E82574"/>
<mask id="path-2-outside-1_721_50" maskUnits="userSpaceOnUse" x="135" y="7" width="67" height="21" fill="black">
<rect fill="white" x="135" y="7" width="67" height="21"/>
<path d="M149.608 9.152V12.44H145.144V26H141.04V12.44H136.576V9.152H149.608ZM157.764 26.192C156.452 26.192 155.268 25.912 154.212 25.352C153.172 24.792 152.348 23.992 151.74 22.952C151.148 21.912 150.852 20.696 150.852 19.304C150.852 17.928 151.156 16.72 151.764 15.68C152.372 14.624 153.204 13.816 154.26 13.256C155.316 12.696 156.5 12.416 157.812 12.416C159.124 12.416 160.308 12.696 161.364 13.256C162.42 13.816 163.252 14.624 163.86 15.68C164.468 16.72 164.772 17.928 164.772 19.304C164.772 20.68 164.46 21.896 163.836 22.952C163.228 23.992 162.388 24.792 161.316 25.352C160.26 25.912 159.076 26.192 157.764 26.192ZM157.764 22.64C158.548 22.64 159.212 22.352 159.756 21.776C160.316 21.2 160.596 20.376 160.596 19.304C160.596 18.232 160.324 17.408 159.78 16.832C159.252 16.256 158.596 15.968 157.812 15.968C157.012 15.968 156.348 16.256 155.82 16.832C155.292 17.392 155.028 18.216 155.028 19.304C155.028 20.376 155.284 21.2 155.796 21.776C156.324 22.352 156.98 22.64 157.764 22.64ZM173.045 26.192C171.733 26.192 170.549 25.912 169.493 25.352C168.453 24.792 167.629 23.992 167.021 22.952C166.429 21.912 166.133 20.696 166.133 19.304C166.133 17.928 166.437 16.72 167.045 15.68C167.653 14.624 168.485 13.816 169.541 13.256C170.597 12.696 171.781 12.416 173.093 12.416C174.405 12.416 175.589 12.696 176.645 13.256C177.701 13.816 178.533 14.624 179.141 15.68C179.749 16.72 180.053 17.928 180.053 19.304C180.053 20.68 179.741 21.896 179.117 22.952C178.509 23.992 177.669 24.792 176.597 25.352C175.541 25.912 174.357 26.192 173.045 26.192ZM173.045 22.64C173.829 22.64 174.493 22.352 175.037 21.776C175.597 21.2 175.877 20.376 175.877 19.304C175.877 18.232 175.605 17.408 175.061 16.832C174.533 16.256 173.877 15.968 173.093 15.968C172.293 15.968 171.629 16.256 171.101 16.832C170.573 17.392 170.309 18.216 170.309 19.304C170.309 20.376 170.565 21.2 171.077 21.776C171.605 22.352 172.261 22.64 173.045 22.64ZM186.334 8.24V26H182.23V8.24H186.334ZM194.756 26.192C193.588 26.192 192.548 25.992 191.636 25.592C190.724 25.192 190.004 24.648 189.476 23.96C188.948 23.256 188.652 22.472 188.588 21.608H192.644C192.692 22.072 192.908 22.448 193.292 22.736C193.676 23.024 194.148 23.168 194.708 23.168C195.22 23.168 195.612 23.072 195.884 22.88C196.172 22.672 196.316 22.408 196.316 22.088C196.316 21.704 196.116 21.424 195.716 21.248C195.316 21.056 194.668 20.848 193.772 20.624C192.812 20.4 192.012 20.168 191.372 19.928C190.732 19.672 190.18 19.28 189.716 18.752C189.252 18.208 189.02 17.48 189.02 16.568C189.02 15.8 189.228 15.104 189.644 14.48C190.076 13.84 190.7 13.336 191.516 12.968C192.348 12.6 193.332 12.416 194.468 12.416C196.148 12.416 197.468 12.832 198.428 13.664C199.404 14.496 199.964 15.6 200.108 16.976H196.316C196.252 16.512 196.044 16.144 195.692 15.872C195.356 15.6 194.908 15.464 194.348 15.464C193.868 15.464 193.5 15.56 193.244 15.752C192.988 15.928 192.86 16.176 192.86 16.496C192.86 16.88 193.06 17.168 193.46 17.36C193.876 17.552 194.516 17.744 195.38 17.936C196.372 18.192 197.18 18.448 197.804 18.704C198.428 18.944 198.972 19.344 199.436 19.904C199.916 20.448 200.164 21.184 200.18 22.112C200.18 22.896 199.956 23.6 199.508 24.224C199.076 24.832 198.444 25.312 197.612 25.664C196.796 26.016 195.844 26.192 194.756 26.192Z"/>
</mask>
<path d="M149.608 9.152V12.44H145.144V26H141.04V12.44H136.576V9.152H149.608ZM157.764 26.192C156.452 26.192 155.268 25.912 154.212 25.352C153.172 24.792 152.348 23.992 151.74 22.952C151.148 21.912 150.852 20.696 150.852 19.304C150.852 17.928 151.156 16.72 151.764 15.68C152.372 14.624 153.204 13.816 154.26 13.256C155.316 12.696 156.5 12.416 157.812 12.416C159.124 12.416 160.308 12.696 161.364 13.256C162.42 13.816 163.252 14.624 163.86 15.68C164.468 16.72 164.772 17.928 164.772 19.304C164.772 20.68 164.46 21.896 163.836 22.952C163.228 23.992 162.388 24.792 161.316 25.352C160.26 25.912 159.076 26.192 157.764 26.192ZM157.764 22.64C158.548 22.64 159.212 22.352 159.756 21.776C160.316 21.2 160.596 20.376 160.596 19.304C160.596 18.232 160.324 17.408 159.78 16.832C159.252 16.256 158.596 15.968 157.812 15.968C157.012 15.968 156.348 16.256 155.82 16.832C155.292 17.392 155.028 18.216 155.028 19.304C155.028 20.376 155.284 21.2 155.796 21.776C156.324 22.352 156.98 22.64 157.764 22.64ZM173.045 26.192C171.733 26.192 170.549 25.912 169.493 25.352C168.453 24.792 167.629 23.992 167.021 22.952C166.429 21.912 166.133 20.696 166.133 19.304C166.133 17.928 166.437 16.72 167.045 15.68C167.653 14.624 168.485 13.816 169.541 13.256C170.597 12.696 171.781 12.416 173.093 12.416C174.405 12.416 175.589 12.696 176.645 13.256C177.701 13.816 178.533 14.624 179.141 15.68C179.749 16.72 180.053 17.928 180.053 19.304C180.053 20.68 179.741 21.896 179.117 22.952C178.509 23.992 177.669 24.792 176.597 25.352C175.541 25.912 174.357 26.192 173.045 26.192ZM173.045 22.64C173.829 22.64 174.493 22.352 175.037 21.776C175.597 21.2 175.877 20.376 175.877 19.304C175.877 18.232 175.605 17.408 175.061 16.832C174.533 16.256 173.877 15.968 173.093 15.968C172.293 15.968 171.629 16.256 171.101 16.832C170.573 17.392 170.309 18.216 170.309 19.304C170.309 20.376 170.565 21.2 171.077 21.776C171.605 22.352 172.261 22.64 173.045 22.64ZM186.334 8.24V26H182.23V8.24H186.334ZM194.756 26.192C193.588 26.192 192.548 25.992 191.636 25.592C190.724 25.192 190.004 24.648 189.476 23.96C188.948 23.256 188.652 22.472 188.588 21.608H192.644C192.692 22.072 192.908 22.448 193.292 22.736C193.676 23.024 194.148 23.168 194.708 23.168C195.22 23.168 195.612 23.072 195.884 22.88C196.172 22.672 196.316 22.408 196.316 22.088C196.316 21.704 196.116 21.424 195.716 21.248C195.316 21.056 194.668 20.848 193.772 20.624C192.812 20.4 192.012 20.168 191.372 19.928C190.732 19.672 190.18 19.28 189.716 18.752C189.252 18.208 189.02 17.48 189.02 16.568C189.02 15.8 189.228 15.104 189.644 14.48C190.076 13.84 190.7 13.336 191.516 12.968C192.348 12.6 193.332 12.416 194.468 12.416C196.148 12.416 197.468 12.832 198.428 13.664C199.404 14.496 199.964 15.6 200.108 16.976H196.316C196.252 16.512 196.044 16.144 195.692 15.872C195.356 15.6 194.908 15.464 194.348 15.464C193.868 15.464 193.5 15.56 193.244 15.752C192.988 15.928 192.86 16.176 192.86 16.496C192.86 16.88 193.06 17.168 193.46 17.36C193.876 17.552 194.516 17.744 195.38 17.936C196.372 18.192 197.18 18.448 197.804 18.704C198.428 18.944 198.972 19.344 199.436 19.904C199.916 20.448 200.164 21.184 200.18 22.112C200.18 22.896 199.956 23.6 199.508 24.224C199.076 24.832 198.444 25.312 197.612 25.664C196.796 26.016 195.844 26.192 194.756 26.192Z" fill="#F1F1F1"/>
<path d="M149.608 9.152H150.608V8.152H149.608V9.152ZM149.608 12.44V13.44H150.608V12.44H149.608ZM145.144 12.44V11.44H144.144V12.44H145.144ZM145.144 26V27H146.144V26H145.144ZM141.04 26H140.04V27H141.04V26ZM141.04 12.44H142.04V11.44H141.04V12.44ZM136.576 12.44H135.576V13.44H136.576V12.44ZM136.576 9.152V8.152H135.576V9.152H136.576ZM148.608 9.152V12.44H150.608V9.152H148.608ZM149.608 11.44H145.144V13.44H149.608V11.44ZM144.144 12.44V26H146.144V12.44H144.144ZM145.144 25H141.04V27H145.144V25ZM142.04 26V12.44H140.04V26H142.04ZM141.04 11.44H136.576V13.44H141.04V11.44ZM137.576 12.44V9.152H135.576V12.44H137.576ZM136.576 10.152H149.608V8.152H136.576V10.152ZM154.212 25.352L153.738 26.2325L153.743 26.2355L154.212 25.352ZM151.74 22.952L150.871 23.4467L150.876 23.4567L151.74 22.952ZM151.764 15.68L152.627 16.1847L152.63 16.179L151.764 15.68ZM154.26 13.256L154.728 14.1395L154.728 14.1395L154.26 13.256ZM161.364 13.256L160.895 14.1395L160.895 14.1395L161.364 13.256ZM163.86 15.68L162.993 16.179L162.996 16.1847L163.86 15.68ZM163.836 22.952L162.975 22.4433L162.972 22.4473L163.836 22.952ZM161.316 25.352L160.853 24.4656L160.847 24.4685L161.316 25.352ZM159.756 21.776L159.039 21.0789L159.034 21.0841L159.029 21.0894L159.756 21.776ZM159.78 16.832L159.043 17.5077L159.048 17.5132L159.053 17.5186L159.78 16.832ZM155.82 16.832L156.547 17.5181L156.557 17.5077L155.82 16.832ZM155.796 21.776L155.048 22.4404L155.053 22.4461L155.059 22.4517L155.796 21.776ZM157.764 25.192C156.599 25.192 155.578 24.9447 154.68 24.4685L153.743 26.2355C154.957 26.8793 156.305 27.192 157.764 27.192V25.192ZM154.686 24.4715C153.811 24.0005 153.12 23.332 152.603 22.4473L150.876 23.4567C151.575 24.652 152.532 25.5835 153.738 26.2325L154.686 24.4715ZM152.609 22.4573C152.116 21.5911 151.852 20.5511 151.852 19.304H149.852C149.852 20.8409 150.18 22.2329 150.871 23.4467L152.609 22.4573ZM151.852 19.304C151.852 18.0797 152.121 17.0508 152.627 16.1847L150.9 15.1753C150.191 16.3892 149.852 17.7763 149.852 19.304H151.852ZM152.63 16.179C153.146 15.2827 153.842 14.6095 154.728 14.1395L153.791 12.3725C152.566 13.0225 151.597 13.9653 150.897 15.181L152.63 16.179ZM154.728 14.1395C155.626 13.6633 156.647 13.416 157.812 13.416V11.416C156.353 11.416 155.005 11.7287 153.791 12.3725L154.728 14.1395ZM157.812 13.416C158.977 13.416 159.997 13.6633 160.895 14.1395L161.832 12.3725C160.618 11.7287 159.271 11.416 157.812 11.416V13.416ZM160.895 14.1395C161.782 14.6095 162.477 15.2827 162.993 16.179L164.726 15.181C164.026 13.9653 163.058 13.0225 161.832 12.3725L160.895 14.1395ZM162.996 16.1847C163.503 17.0508 163.772 18.0797 163.772 19.304H165.772C165.772 17.7763 165.433 16.3892 164.723 15.1753L162.996 16.1847ZM163.772 19.304C163.772 20.5233 163.497 21.5595 162.975 22.4433L164.697 23.4607C165.422 22.2325 165.772 20.8367 165.772 19.304H163.772ZM162.972 22.4473C162.46 23.3243 161.759 23.9923 160.853 24.4657L161.779 26.2383C163.017 25.5917 163.996 24.6597 164.699 23.4567L162.972 22.4473ZM160.847 24.4685C159.949 24.9447 158.929 25.192 157.764 25.192V27.192C159.223 27.192 160.57 26.8793 161.784 26.2355L160.847 24.4685ZM157.764 23.64C158.826 23.64 159.752 23.2362 160.483 22.4626L159.029 21.0894C158.671 21.4678 158.269 21.64 157.764 21.64V23.64ZM160.473 22.4731C161.268 21.6548 161.596 20.5468 161.596 19.304H159.596C159.596 20.2052 159.363 20.7452 159.039 21.0789L160.473 22.4731ZM161.596 19.304C161.596 18.0685 161.28 16.9645 160.507 16.1454L159.053 17.5186C159.367 17.8515 159.596 18.3955 159.596 19.304H161.596ZM160.517 16.1563C159.799 15.3729 158.875 14.968 157.812 14.968V16.968C158.316 16.968 158.705 17.1391 159.043 17.5077L160.517 16.1563ZM157.812 14.968C156.739 14.968 155.805 15.3681 155.083 16.1563L156.557 17.5077C156.89 17.1439 157.284 16.968 157.812 16.968V14.968ZM155.092 16.146C154.328 16.9564 154.028 18.0667 154.028 19.304H156.028C156.028 18.3653 156.255 17.8276 156.547 17.518L155.092 16.146ZM154.028 19.304C154.028 20.5252 154.32 21.6206 155.048 22.4404L156.543 21.1116C156.248 20.7794 156.028 20.2268 156.028 19.304H154.028ZM155.059 22.4517C155.777 23.2351 156.7 23.64 157.764 23.64V21.64C157.259 21.64 156.871 21.4689 156.533 21.1003L155.059 22.4517ZM169.493 25.352L169.019 26.2325L169.024 26.2355L169.493 25.352ZM167.021 22.952L166.152 23.4467L166.158 23.4567L167.021 22.952ZM167.045 15.68L167.908 16.1847L167.912 16.179L167.045 15.68ZM169.541 13.256L170.009 14.1395L170.009 14.1395L169.541 13.256ZM176.645 13.256L176.176 14.1395L176.176 14.1395L176.645 13.256ZM179.141 15.68L178.274 16.179L178.278 16.1847L179.141 15.68ZM179.117 22.952L178.256 22.4433L178.254 22.4473L179.117 22.952ZM176.597 25.352L176.134 24.4656L176.128 24.4685L176.597 25.352ZM175.037 21.776L174.32 21.0789L174.315 21.0841L174.31 21.0894L175.037 21.776ZM175.061 16.832L174.324 17.5077L174.329 17.5132L174.334 17.5186L175.061 16.832ZM171.101 16.832L171.829 17.5181L171.838 17.5077L171.101 16.832ZM171.077 21.776L170.33 22.4404L170.335 22.4461L170.34 22.4517L171.077 21.776ZM173.045 25.192C171.88 25.192 170.859 24.9447 169.961 24.4685L169.024 26.2355C170.238 26.8793 171.586 27.192 173.045 27.192V25.192ZM169.967 24.4715C169.092 24.0005 168.401 23.332 167.884 22.4473L166.158 23.4567C166.856 24.652 167.814 25.5835 169.019 26.2325L169.967 24.4715ZM167.89 22.4573C167.397 21.5911 167.133 20.5511 167.133 19.304H165.133C165.133 20.8409 165.461 22.2329 166.152 23.4467L167.89 22.4573ZM167.133 19.304C167.133 18.0797 167.402 17.0508 167.908 16.1847L166.182 15.1753C165.472 16.3892 165.133 17.7763 165.133 19.304H167.133ZM167.912 16.179C168.428 15.2827 169.123 14.6095 170.009 14.1395L169.072 12.3725C167.847 13.0225 166.878 13.9653 166.178 15.181L167.912 16.179ZM170.009 14.1395C170.907 13.6633 171.928 13.416 173.093 13.416V11.416C171.634 11.416 170.286 11.7287 169.072 12.3725L170.009 14.1395ZM173.093 13.416C174.258 13.416 175.278 13.6633 176.176 14.1395L177.113 12.3725C175.899 11.7287 174.552 11.416 173.093 11.416V13.416ZM176.176 14.1395C177.063 14.6095 177.758 15.2827 178.274 16.179L180.008 15.181C179.308 13.9653 178.339 13.0225 177.113 12.3725L176.176 14.1395ZM178.278 16.1847C178.784 17.0508 179.053 18.0797 179.053 19.304H181.053C181.053 17.7763 180.714 16.3892 180.004 15.1753L178.278 16.1847ZM179.053 19.304C179.053 20.5233 178.778 21.5595 178.256 22.4433L179.978 23.4607C180.704 22.2325 181.053 20.8367 181.053 19.304H179.053ZM178.254 22.4473C177.741 23.3243 177.04 23.9923 176.134 24.4657L177.06 26.2383C178.298 25.5917 179.277 24.6597 179.98 23.4567L178.254 22.4473ZM176.128 24.4685C175.23 24.9447 174.21 25.192 173.045 25.192V27.192C174.504 27.192 175.851 26.8793 177.065 26.2355L176.128 24.4685ZM173.045 23.64C174.107 23.64 175.033 23.2362 175.764 22.4626L174.31 21.0894C173.953 21.4678 173.551 21.64 173.045 21.64V23.64ZM175.754 22.4731C176.549 21.6548 176.877 20.5468 176.877 19.304H174.877C174.877 20.2052 174.644 20.7452 174.32 21.0789L175.754 22.4731ZM176.877 19.304C176.877 18.0685 176.562 16.9645 175.788 16.1454L174.334 17.5186C174.648 17.8515 174.877 18.3955 174.877 19.304H176.877ZM175.798 16.1563C175.08 15.3729 174.156 14.968 173.093 14.968V16.968C173.598 16.968 173.986 17.1391 174.324 17.5077L175.798 16.1563ZM173.093 14.968C172.02 14.968 171.086 15.3681 170.364 16.1563L171.838 17.5077C172.172 17.1439 172.566 16.968 173.093 16.968V14.968ZM170.373 16.146C169.609 16.9564 169.309 18.0667 169.309 19.304H171.309C171.309 18.3653 171.537 17.8276 171.829 17.518L170.373 16.146ZM169.309 19.304C169.309 20.5252 169.601 21.6206 170.33 22.4404L171.824 21.1116C171.529 20.7794 171.309 20.2268 171.309 19.304H169.309ZM170.34 22.4517C171.058 23.2351 171.982 23.64 173.045 23.64V21.64C172.54 21.64 172.152 21.4689 171.814 21.1003L170.34 22.4517ZM186.334 8.24H187.334V7.24H186.334V8.24ZM186.334 26V27H187.334V26H186.334ZM182.23 26H181.23V27H182.23V26ZM182.23 8.24V7.24H181.23V8.24H182.23ZM185.334 8.24V26H187.334V8.24H185.334ZM186.334 25H182.23V27H186.334V25ZM183.23 26V8.24H181.23V26H183.23ZM182.23 9.24H186.334V7.24H182.23V9.24ZM191.636 25.592L192.038 24.6762L192.038 24.6762L191.636 25.592ZM189.476 23.96L188.676 24.56L188.683 24.5688L189.476 23.96ZM188.588 21.608V20.608H187.511L187.591 21.6819L188.588 21.608ZM192.644 21.608L193.639 21.5051L193.546 20.608H192.644V21.608ZM193.292 22.736L193.892 21.936L193.892 21.936L193.292 22.736ZM195.884 22.88L196.461 23.697L196.47 23.6907L195.884 22.88ZM195.716 21.248L195.284 22.1495L195.298 22.1567L195.314 22.1633L195.716 21.248ZM193.772 20.624L194.015 19.6539L194.007 19.6519L194 19.6502L193.772 20.624ZM191.372 19.928L191.001 20.8565L191.011 20.8605L191.021 20.8643L191.372 19.928ZM189.716 18.752L188.955 19.4009L188.96 19.4066L188.965 19.4121L189.716 18.752ZM189.644 14.48L188.815 13.9205L188.812 13.9253L189.644 14.48ZM191.516 12.968L191.112 12.0534L191.105 12.0564L191.516 12.968ZM198.428 13.664L197.773 14.4197L197.78 14.425L198.428 13.664ZM200.108 16.976V17.976H201.218L201.103 16.8719L200.108 16.976ZM196.316 16.976L195.326 17.1126L195.445 17.976H196.316V16.976ZM195.692 15.872L195.063 16.6492L195.072 16.6564L195.081 16.6633L195.692 15.872ZM193.244 15.752L193.811 16.576L193.828 16.5644L193.844 16.552L193.244 15.752ZM193.46 17.36L193.028 18.2615L193.034 18.2648L193.041 18.268L193.46 17.36ZM195.38 17.936L195.63 16.9677L195.614 16.9635L195.597 16.9598L195.38 17.936ZM197.804 18.704L197.425 19.6292L197.435 19.6334L197.445 19.6373L197.804 18.704ZM199.436 19.904L198.666 20.542L198.676 20.554L198.686 20.5656L199.436 19.904ZM200.18 22.112H201.18V22.1034L201.18 22.0948L200.18 22.112ZM199.508 24.224L198.696 23.6408L198.693 23.6448L199.508 24.224ZM197.612 25.664L197.223 24.743L197.216 24.7458L197.612 25.664ZM194.756 25.192C193.703 25.192 192.803 25.0119 192.038 24.6762L191.235 26.5078C192.293 26.9721 193.474 27.192 194.756 27.192V25.192ZM192.038 24.6762C191.257 24.3338 190.681 23.8868 190.27 23.3512L188.683 24.5688C189.328 25.4092 190.191 26.0502 191.235 26.5078L192.038 24.6762ZM190.276 23.36C189.861 22.8064 189.635 22.2043 189.586 21.5341L187.591 21.6819C187.669 22.7397 188.036 23.7056 188.676 24.56L190.276 23.36ZM188.588 22.608H192.644V20.608H188.588V22.608ZM191.65 21.7109C191.727 22.4611 192.093 23.0863 192.692 23.536L193.892 21.936C193.724 21.8097 193.657 21.6829 193.639 21.5051L191.65 21.7109ZM192.692 23.536C193.277 23.9746 193.969 24.168 194.708 24.168V22.168C194.327 22.168 194.076 22.0734 193.892 21.936L192.692 23.536ZM194.708 24.168C195.323 24.168 195.952 24.0565 196.461 23.697L195.308 22.063C195.273 22.0875 195.118 22.168 194.708 22.168V24.168ZM196.47 23.6907C196.985 23.3187 197.316 22.768 197.316 22.088H195.316C195.316 22.0925 195.316 22.0883 195.318 22.0781C195.32 22.0732 195.321 22.0679 195.323 22.0623C195.326 22.0566 195.328 22.0515 195.33 22.0471C195.335 22.0379 195.339 22.0351 195.336 22.0383C195.332 22.0419 195.322 22.0529 195.299 22.0693L196.47 23.6907ZM197.316 22.088C197.316 21.7128 197.215 21.3378 196.98 21.0088C196.751 20.6879 196.44 20.4738 196.119 20.3327L195.314 22.1633C195.393 22.1982 195.382 22.2121 195.353 22.1712C195.338 22.1515 195.328 22.1289 195.321 22.1079C195.315 22.0879 195.316 22.0793 195.316 22.088H197.316ZM196.149 20.3465C195.653 20.1082 194.922 19.8806 194.015 19.6539L193.53 21.5941C194.415 21.8154 194.98 22.0038 195.284 22.1495L196.149 20.3465ZM194 19.6502C193.065 19.4321 192.31 19.2115 191.723 18.9917L191.021 20.8643C191.715 21.1245 192.56 21.3679 193.545 21.5978L194 19.6502ZM191.744 18.9995C191.253 18.8031 190.83 18.5042 190.467 18.0919L188.965 19.4121C189.531 20.0558 190.212 20.5409 191.001 20.8565L191.744 18.9995ZM190.477 18.1031C190.206 17.7853 190.02 17.3093 190.02 16.568H188.02C188.02 17.6507 188.298 18.6307 188.955 19.4009L190.477 18.1031ZM190.02 16.568C190.02 15.9924 190.173 15.4903 190.476 15.0347L188.812 13.9253C188.284 14.7177 188.02 15.6076 188.02 16.568H190.02ZM190.473 15.0395C190.786 14.5765 191.253 14.1836 191.927 13.8796L191.105 12.0564C190.147 12.4884 189.367 13.1035 188.815 13.9205L190.473 15.0395ZM191.921 13.8825C192.598 13.5831 193.438 13.416 194.468 13.416V11.416C193.227 11.416 192.099 11.6169 191.112 12.0535L191.921 13.8825ZM194.468 13.416C195.986 13.416 197.047 13.7901 197.773 14.4197L199.083 12.9083C197.89 11.8739 196.31 11.416 194.468 11.416V13.416ZM197.78 14.425C198.544 15.0767 198.994 15.9373 199.114 17.0801L201.103 16.8719C200.934 15.2627 200.265 13.9153 199.077 12.903L197.78 14.425ZM200.108 15.976H196.316V17.976H200.108V15.976ZM197.307 16.8394C197.209 16.1311 196.875 15.522 196.304 15.0807L195.081 16.6633C195.214 16.766 195.295 16.8929 195.326 17.1126L197.307 16.8394ZM196.322 15.0948C195.761 14.6407 195.069 14.464 194.348 14.464V16.464C194.748 16.464 194.952 16.5593 195.063 16.6492L196.322 15.0948ZM194.348 14.464C193.755 14.464 193.141 14.5797 192.644 14.952L193.844 16.552C193.86 16.5403 193.982 16.464 194.348 16.464V14.464ZM192.678 14.928C192.141 15.2971 191.86 15.8585 191.86 16.496H193.86C193.86 16.4827 193.862 16.4815 193.86 16.4893C193.858 16.4977 193.854 16.5119 193.845 16.5286C193.836 16.5455 193.826 16.5592 193.818 16.5688C193.809 16.578 193.805 16.5798 193.811 16.576L192.678 14.928ZM191.86 16.496C191.86 16.8716 191.962 17.243 192.189 17.5704C192.411 17.8895 192.712 18.1102 193.028 18.2615L193.893 16.4585C193.851 16.4384 193.83 16.4231 193.823 16.4171C193.816 16.4117 193.822 16.4151 193.832 16.4296C193.837 16.4366 193.841 16.4449 193.846 16.4542C193.85 16.4636 193.854 16.4726 193.856 16.4807C193.861 16.4977 193.86 16.5045 193.86 16.496H191.86ZM193.041 18.268C193.557 18.506 194.281 18.7162 195.163 18.9122L195.597 16.9598C194.751 16.7718 194.196 16.598 193.879 16.452L193.041 18.268ZM195.13 18.9043C196.098 19.1541 196.859 19.3969 197.425 19.6292L198.184 17.7788C197.502 17.4991 196.646 17.2299 195.63 16.9677L195.13 18.9043ZM197.445 19.6373C197.895 19.8105 198.302 20.1022 198.666 20.542L200.206 19.266C199.643 18.5858 198.961 18.0775 198.163 17.7707L197.445 19.6373ZM198.686 20.5656C198.969 20.8863 199.167 21.3709 199.18 22.1292L201.18 22.0948C201.161 20.9971 200.863 20.0097 200.186 19.2424L198.686 20.5656ZM199.18 22.112C199.18 22.6914 199.019 23.1905 198.696 23.6408L200.321 24.8072C200.893 24.0095 201.18 23.1006 201.18 22.112H199.18ZM198.693 23.6448C198.389 24.0725 197.92 24.448 197.223 24.743L198.002 26.585C198.969 26.176 199.763 25.5915 200.323 24.8032L198.693 23.6448ZM197.216 24.7458C196.55 25.0332 195.738 25.192 194.756 25.192V27.192C195.951 27.192 197.043 26.9988 198.008 26.5822L197.216 24.7458Z" fill="black" mask="url(#path-2-outside-1_721_50)"/>
<path d="M17.5 2.9165C14.6157 2.9165 11.7962 3.7718 9.39796 5.37424C6.99974 6.97668 5.13056 9.25428 4.02678 11.919C2.92301 14.5838 2.63421 17.516 3.19691 20.3449C3.75961 23.1738 5.14854 25.7723 7.18805 27.8118C9.22757 29.8513 11.8261 31.2403 14.655 31.803C17.4838 32.3657 20.4161 32.0769 23.0808 30.9731C25.7456 29.8693 28.0232 28.0001 29.6256 25.6019C31.2281 23.2037 32.0834 20.3841 32.0834 17.4998C32.0834 15.5847 31.7061 13.6884 30.9733 11.919C30.2404 10.1497 29.1662 8.54205 27.812 7.18786C26.4578 5.83368 24.8502 4.75948 23.0808 4.02659C21.3115 3.29371 19.4151 2.9165 17.5 2.9165ZM17.5 29.1665C14.4058 29.1665 11.4384 27.9373 9.25045 25.7494C7.06252 23.5615 5.83336 20.594 5.83336 17.4998C5.83336 14.4056 7.06252 11.4382 9.25045 9.25026C11.4384 7.06233 14.4058 5.83317 17.5 5.83317C17.7334 5.83317 17.9609 5.85505 18.1898 5.86817C17.0374 9.46263 17.3372 13.3654 19.0253 16.7416C20.7134 20.1177 23.6557 22.6993 27.2227 23.934C26.1602 25.5412 24.7161 26.8602 23.0196 27.7732C21.323 28.6863 19.4267 29.165 17.5 29.1665Z" fill="#E82574"/>
</svg>
