<svg width="100" height="50" viewBox="0 0 100 50" fill="none" xmlns="http://www.w3.org/2000/svg">
<path d="M3.32483 38.2024L3.32568 38.2028L3.56534 37.8897L6.58293 33.9473H18.7536L21.7713 37.8897L22.013 38.2054L22.0138 38.205L24.7071 41.7236L22.0134 45.2426L22.0126 45.2423L21.7713 45.5574L18.7536 49.4998H6.58295L3.56534 45.5574L3.32605 45.2448L3.32521 45.2452L0.629639 41.7236L3.32483 38.2024Z" stroke="#FF3131"/>
<path d="M40.7789 38.0076L40.7798 38.008L41.0194 37.6949L44.037 33.7524H56.2077L59.2254 37.6949L59.4671 38.0105L59.4679 38.0102L62.1612 41.5287L59.4675 45.0478L59.4667 45.0474L59.2254 45.3626L56.2077 49.305H44.0371L41.0194 45.3626L40.7802 45.05L40.7793 45.0504L38.0837 41.5287L40.7789 38.0076Z" stroke="#FF3131"/>
<path d="M59.3836 13.1097L59.3844 13.11L59.6241 12.7969L62.6417 8.85449H74.8124L77.8301 12.7969L78.0717 13.1126L78.0725 13.1122L80.7658 16.6308L78.0722 20.1499L78.0713 20.1495L77.8301 20.4646L74.8124 24.4071H62.6417L59.6241 20.4646L59.3848 20.152L59.384 20.1524L56.6884 16.6308L59.3836 13.1097Z" stroke="#FF3131"/>
<path d="M21.9295 29.8474L21.9303 29.8478L22.17 29.5347L25.1876 25.5923H37.3583L40.376 29.5347L40.6176 29.8504L40.6184 29.85L43.3117 33.3686L40.618 36.8877L40.6172 36.8873L40.376 37.2024L37.3583 41.1449H25.1876L22.17 37.2024L21.9307 36.8898L21.9299 36.8902L19.2343 33.3686L21.9295 29.8474Z" stroke="#FF3131"/>
<path d="M59.3836 29.6531L59.3844 29.6535L59.6241 29.3404L62.6417 25.3979H74.8124L77.8301 29.3404L78.0717 29.656L78.0725 29.6557L80.7658 33.1742L78.0722 36.6933L78.0713 36.6929L77.8301 37.0081L74.8124 40.9505H62.6417L59.6241 37.0081L59.3848 36.6955L59.384 36.6959L56.6884 33.1742L59.3836 29.6531Z" stroke="#FF3131"/>
<path d="M77.9882 4.75516L77.9891 4.75554L78.2287 4.44243L81.2463 0.5H93.417L96.4347 4.44244L96.6764 4.75809L96.6772 4.75772L99.3704 8.27629L96.6768 11.7954L96.676 11.795L96.4347 12.1101L93.417 16.0526H81.2463L78.2287 12.1102L77.9894 11.7975L77.9886 11.7979L75.293 8.27629L77.9882 4.75516Z" stroke="#FF3131"/>
<g clip-path="url(#clip0_722_108)">
<path d="M18.0756 38.1602C18.0514 38.136 18.0262 38.1117 17.9999 38.0875C17.3799 37.4999 16.6078 37.0255 15.7361 36.6966C14.8644 36.3678 13.9137 36.1922 12.9488 36.1818C12.9162 36.181 12.8847 36.1802 12.852 36.1802C12.8194 36.1802 12.7879 36.181 12.7553 36.1818C11.7868 36.1923 10.8326 36.3692 9.95833 36.7005C9.08405 37.0317 8.3104 37.5095 7.69053 38.1009C7.67287 38.1159 7.65636 38.1319 7.6411 38.1485C7.64031 38.1498 7.63924 38.1509 7.63794 38.1519C6.65645 39.1047 6.12018 40.298 6.12018 41.5294C6.12018 42.7607 6.65645 43.954 7.63794 44.9069C7.63924 44.9078 7.64031 44.9089 7.6411 44.9102C7.65636 44.9269 7.67287 44.9428 7.69053 44.9578L7.69159 44.9587C8.31138 45.5499 9.08489 46.0274 9.95898 46.3585C10.8331 46.6897 11.787 46.8665 12.7553 46.8769C12.8199 46.8785 12.8842 46.8785 12.9488 46.8769C13.9137 46.8665 14.8644 46.6909 15.7361 46.3621C16.6078 46.0332 17.3799 45.5588 17.9999 44.9712C18.0262 44.947 18.0514 44.9227 18.0756 44.8985C19.0512 43.9468 19.584 42.7569 19.584 41.5294C19.584 40.3019 19.0512 39.1119 18.0756 38.1602ZM16.5851 41.3831C16.5747 40.5905 16.4307 39.8026 16.157 39.0403C16.7562 38.89 17.3286 38.6791 17.86 38.4126C18.7008 39.2616 19.1751 40.3032 19.2127 41.3831H16.5851ZM13.0361 36.4802C14.1606 36.5722 15.1388 37.4949 15.7037 38.8456C14.8341 39.0352 13.9377 39.1358 13.0361 39.1448V36.4802ZM12.668 39.1448C11.7664 39.1358 10.8699 39.0352 10.0004 38.8456C10.5653 37.4949 11.5435 36.5722 12.668 36.4802V39.1448ZM12.668 39.4373V41.3831H9.48712C9.49716 40.6195 9.63331 39.8602 9.89209 39.1247C10.7967 39.323 11.7296 39.428 12.668 39.4373ZM12.668 41.6756V43.6214C11.7296 43.6307 10.7967 43.7358 9.89209 43.934C9.63331 43.1985 9.49716 42.4392 9.48712 41.6756H12.668ZM12.668 43.9139V46.5785C11.5435 46.4865 10.5653 45.5638 10.0004 44.2131C10.8699 44.0235 11.7664 43.923 12.668 43.9139ZM13.0361 43.9139C13.9377 43.923 14.8341 44.0235 15.7037 44.2131C15.1388 45.5638 14.1606 46.4865 13.0361 46.5785V43.9139ZM13.0361 43.6214V41.6756H16.217C16.2069 42.4395 16.0708 43.1991 15.812 43.9348C14.9076 43.7356 13.9746 43.6302 13.0361 43.6214ZM13.0361 41.3831V39.4373C13.9746 39.4285 14.9076 39.3232 15.812 39.1239C16.0708 39.8596 16.2069 40.6192 16.217 41.3831H13.0361ZM17.6223 38.1853C17.1294 38.4293 16.6001 38.6233 16.0466 38.7628C15.6426 37.8083 15.0357 37.0494 14.3131 36.6073C15.5949 36.8489 16.7509 37.4002 17.6223 38.1853ZM11.391 36.6073C10.6684 37.0494 10.0614 37.8083 9.65752 38.7628C9.10442 38.6229 8.57518 38.4292 8.08183 38.1861C8.95264 37.4004 10.1089 36.8487 11.391 36.6073ZM7.84411 38.4118C8.37541 38.6788 8.94777 38.8903 9.54708 39.0412C9.2733 39.8031 9.12932 40.5907 9.11897 41.3831H6.49141C6.52899 40.3029 7.00329 39.2611 7.84411 38.4118ZM9.11897 41.6756C9.12932 42.468 9.2733 43.2556 9.54708 44.0176V44.0184C8.94764 44.1686 8.37522 44.3799 7.84411 44.6469C7.00329 43.7976 6.52899 42.7558 6.49141 41.6756H9.11897ZM8.08183 44.8726C8.57518 44.6296 9.10442 44.4359 9.65752 44.2959C10.0614 45.2504 10.6684 46.0093 11.391 46.4514C10.1089 46.21 8.95264 45.6583 8.08183 44.8726ZM14.3131 46.4514C15.0357 46.0093 15.6426 45.2504 16.0466 44.2959C16.6001 44.4354 17.1294 44.6294 17.6223 44.8734C16.7509 45.6585 15.5949 46.2098 14.3131 46.4514ZM17.86 44.6461C17.3286 44.3796 16.7562 44.1687 16.157 44.0184C16.4307 43.2562 16.5747 42.4682 16.5851 41.6756H19.2127C19.1751 42.7555 18.7008 43.7971 17.86 44.6461Z" fill="white"/>
</g>
<path d="M31.4778 36.948C31.2208 36.948 30.9821 36.8167 30.8169 36.5687C28.7789 33.578 28.7606 33.5488 28.7606 33.5342C28.4668 33.1622 28.3108 32.7099 28.3108 32.2504C28.3108 30.8572 29.7336 29.7266 31.487 29.7266C33.2404 29.7266 34.6633 30.8572 34.6633 32.2504C34.6633 32.7245 34.498 33.1841 34.1859 33.578C34.1859 33.578 34.0758 33.753 32.148 36.5687C31.9736 36.8167 31.7441 36.948 31.4778 36.948ZM31.487 30.0183C29.9356 30.0183 28.678 31.0177 28.678 32.2504C28.678 32.6589 28.8157 33.0601 29.0911 33.4102C29.1461 33.505 30.5966 35.6277 31.1474 36.4374C31.3401 36.7218 31.6247 36.7218 31.8267 36.4374C32.5152 35.4307 33.8187 33.5123 33.8646 33.4467C34.1492 33.082 34.2961 32.6735 34.2961 32.2577C34.2869 31.0177 33.0292 30.0183 31.487 30.0183Z" fill="white"/>
<path d="M31.487 33.7679C30.5139 33.7679 29.7336 33.1405 29.7336 32.3746C29.7336 31.6087 30.5139 30.9741 31.487 30.9741C32.4601 30.9741 33.2404 31.6014 33.2404 32.3673C33.2404 33.1332 32.4509 33.7679 31.487 33.7679ZM31.487 31.2659C30.7251 31.2659 30.1008 31.7619 30.1008 32.3673C30.1008 32.9728 30.7251 33.4688 31.487 33.4688C32.2489 33.4688 32.8732 32.9728 32.8732 32.3673C32.8732 31.7619 32.2489 31.2659 31.487 31.2659Z" fill="white"/>
<g clip-path="url(#clip1_722_108)">
<path d="M55.8308 43.2577L54.1804 41.9467C54.1085 41.8891 54.0228 41.8434 53.9284 41.8123C53.8341 41.7812 53.7329 41.7653 53.6307 41.7656H53.6299C53.4222 41.7656 53.2268 41.8302 53.0802 41.9467L51.9799 42.8207L48.6787 40.1984L49.779 39.3244C50.0824 39.0833 50.0824 38.6908 49.7786 38.4498L48.1278 37.1388C48.0557 37.0813 47.9701 37.0357 47.8757 37.0047C47.7813 36.9737 47.6802 36.9578 47.578 36.958C47.3699 36.958 47.1742 37.0226 47.0275 37.1394L45.3767 38.4507C45.3265 38.4903 44.8916 38.8642 45.0982 39.686C45.3417 40.653 46.3611 41.8552 48.1278 43.2586C50.6563 45.2671 52.2511 45.7115 53.1673 45.7115C53.8015 45.7115 54.1112 45.4986 54.1804 45.4436L55.8308 44.1326C55.9779 44.0158 56.0592 43.8603 56.0588 43.695C56.0588 43.5299 55.9779 43.3745 55.8308 43.2577ZM53.6303 45.0063C53.6194 45.0149 52.304 45.7013 48.6779 42.8213C44.9737 39.8791 45.9284 38.8874 45.9269 38.8877L47.5777 37.5761L49.2284 38.8877L47.8531 39.9802C47.817 40.0089 47.7883 40.0429 47.7687 40.0804C47.7491 40.1179 47.739 40.1581 47.739 40.1987C47.739 40.2393 47.7491 40.2795 47.7687 40.317C47.7883 40.3545 47.817 40.3885 47.8531 40.4172L51.7044 43.4765C51.7405 43.5052 51.7834 43.528 51.8306 43.5435C51.8778 43.5591 51.9284 43.5671 51.9795 43.5671C52.0306 43.5671 52.0812 43.5591 52.1284 43.5435C52.1756 43.528 52.2185 43.5052 52.2546 43.4765L53.6299 42.3837L55.2807 43.6953L53.6303 45.0063Z" fill="white"/>
</g>
<path d="M70.529 12.6382H66.8029C66.5084 12.6384 66.2261 12.7315 66.0178 12.897C65.8096 13.0624 65.6924 13.2868 65.6921 13.5208V19.3529C65.6925 19.5869 65.8096 19.8112 66.0179 19.9767C66.2261 20.1421 66.5085 20.2352 66.8029 20.2354H70.529C70.8235 20.2352 71.1058 20.1421 71.3139 19.9766C71.5221 19.8112 71.6393 19.5869 71.6396 19.3529V13.5207C71.6392 13.2868 71.5221 13.0624 71.3139 12.897C71.1057 12.7316 70.8235 12.6385 70.529 12.6382ZM71.1109 19.3529C71.1106 19.4755 71.0493 19.593 70.9402 19.6797C70.8311 19.7663 70.6833 19.8151 70.529 19.8153H66.8029C66.6486 19.8152 66.5007 19.7664 66.3916 19.6797C66.2825 19.593 66.2211 19.4755 66.2208 19.3529V18.7125H71.1109V19.3529ZM71.1109 18.2922H66.2208V14.1952H71.1109V18.2922ZM71.1109 13.7751H66.2208V13.5208C66.221 13.3982 66.2825 13.2807 66.3916 13.194C66.5007 13.1073 66.6486 13.0586 66.8029 13.0585H70.529C70.6833 13.0587 70.8311 13.1074 70.9402 13.1941C71.0493 13.2807 71.1106 13.3983 71.1109 13.5208V13.7751Z" fill="white"/>
<path d="M68.3059 13.2788H69.0259V13.559H68.3059V13.2788ZM67.9272 19.0397H69.4045V19.4599H67.9272V19.0397Z" fill="white"/>
<g clip-path="url(#clip2_722_108)">
<path d="M63.9324 32.5955V35.3086H65.1956C65.2828 35.3086 65.3534 35.3647 65.3534 35.4339C65.3534 35.452 65.3486 35.4691 65.34 35.4846L64.8539 36.6471L66.6894 35.3409L66.6889 35.3406C66.7178 35.3199 66.7553 35.3085 66.7942 35.3086V35.3086H70.7217V32.5955L63.9324 32.5955ZM63.6169 35.4339V32.4701C63.6169 32.4009 63.6875 32.3447 63.7747 32.3447H70.8794C70.9666 32.3447 71.0372 32.4009 71.0372 32.4701V35.4339C71.0372 35.5032 70.9666 35.5593 70.8794 35.5593H66.8535L64.6343 37.1386C64.5935 37.1735 64.5294 37.1883 64.4688 37.1723C64.3861 37.1505 64.3413 37.0795 64.3688 37.0138L64.3695 37.014L64.9777 35.5593H63.7747C63.6875 35.5593 63.6169 35.5032 63.6169 35.4339Z" fill="white"/>
<path d="M64.5835 33.2593H70.0706V33.51H64.5835V33.2593ZM64.5835 34.4266H70.0706V34.6773H64.5835V34.4266Z" fill="white"/>
<path d="M73.7148 29.2767V31.8355C73.7148 31.9048 73.6442 31.9609 73.557 31.9609H72.5482L73.0639 33.1943L73.0646 33.1941C73.092 33.2598 73.0473 33.3308 72.9646 33.3526C72.904 33.3686 72.8398 33.3538 72.7991 33.3188L70.8908 31.9609H67.4233C67.3361 31.9609 67.2655 31.9048 67.2655 31.8355V29.2767C67.2655 29.2075 67.3361 29.1514 67.4233 29.1514H73.557C73.6442 29.1514 73.7148 29.2075 73.7148 29.2767ZM73.3993 31.7102V29.4021H67.581V31.7102H70.9502V31.7102C70.989 31.7101 71.0265 31.7215 71.0554 31.7421L71.055 31.7425L72.5794 32.8273L72.1859 31.8862C72.1771 31.8702 72.1725 31.853 72.1725 31.8355C72.1725 31.7663 72.2432 31.7102 72.3303 31.7102H73.3993Z" fill="white"/>
<path d="M72.8587 30.1917H68.1215V29.9409H72.8587V30.1917ZM72.8587 31.1994H68.1215V30.9487H72.8587V31.1994Z" fill="white"/>
</g>
<g clip-path="url(#clip3_722_108)">
<path d="M92.3697 5.54469C92.3697 5.54346 92.3697 5.54237 92.3692 5.54114C92.3688 5.53991 92.3686 5.53683 92.3685 5.53471C92.3675 5.52521 92.3651 5.51585 92.3613 5.50681C92.3608 5.50558 92.3613 5.50428 92.3604 5.50305C92.3594 5.50182 92.3595 5.50202 92.3593 5.50147C92.3544 5.49154 92.3478 5.48218 92.3397 5.47364C92.3379 5.47173 92.336 5.47002 92.334 5.46817C92.3262 5.46063 92.3173 5.45388 92.3074 5.44806C92.3063 5.44745 92.3055 5.4467 92.3044 5.44615C92.2934 5.44036 92.2814 5.43576 92.2688 5.43247C92.2659 5.43165 92.263 5.43097 92.2602 5.43029C92.247 5.42713 92.2332 5.42545 92.2194 5.42529H82.322C82.3081 5.42545 82.2944 5.42713 82.2812 5.43029C82.2782 5.43097 82.2753 5.43165 82.2726 5.43247C82.26 5.43576 82.248 5.44036 82.2369 5.44615C82.2359 5.4467 82.235 5.44745 82.234 5.44806C82.2241 5.45388 82.2152 5.46063 82.2073 5.46817C82.2054 5.47002 82.2034 5.47173 82.2016 5.47364C82.1936 5.48218 82.187 5.49154 82.1821 5.50147C82.1821 5.50202 82.1812 5.5025 82.181 5.50305C82.1807 5.50359 82.1806 5.50558 82.18 5.50681C82.1763 5.51585 82.1739 5.52521 82.1729 5.53471C82.1729 5.5369 82.1721 5.53902 82.1721 5.54114C82.1721 5.54326 82.1717 5.54346 82.1717 5.54469V10.9891C82.1717 10.9907 82.1722 10.9922 82.1723 10.9938C82.1725 10.9981 82.1731 11.0024 82.1739 11.0066C82.1746 11.0101 82.1752 11.0135 82.1763 11.017C82.1776 11.0212 82.1792 11.0253 82.1811 11.0293C82.1825 11.0325 82.1839 11.0357 82.1857 11.0388C82.1881 11.0428 82.1908 11.0467 82.1937 11.0505C82.1958 11.0533 82.1979 11.0561 82.2002 11.0587C82.2035 11.0623 82.2071 11.0658 82.2109 11.0691C82.2138 11.0715 82.2166 11.074 82.2195 11.0763C82.2213 11.0776 82.2227 11.0792 82.2246 11.0805C82.2265 11.0818 82.2277 11.0816 82.2291 11.0825C82.2408 11.0901 82.254 11.0961 82.268 11.1005C82.271 11.1015 82.2741 11.102 82.2772 11.1028C82.2908 11.1063 82.3049 11.1083 82.3192 11.1086C82.3202 11.1086 82.3212 11.109 82.3222 11.109H92.2191C92.2202 11.109 92.2211 11.1086 92.2221 11.1086C92.2364 11.1083 92.2506 11.1063 92.2642 11.1028C92.2672 11.102 92.2702 11.1015 92.2728 11.1005C92.2868 11.0961 92.3 11.0901 92.3118 11.0825C92.3131 11.0816 92.3148 11.0814 92.3162 11.0805C92.3176 11.0796 92.3195 11.0776 92.3213 11.0763C92.3244 11.074 92.3272 11.0716 92.3299 11.0691C92.3337 11.0658 92.3373 11.0623 92.3407 11.0587C92.343 11.0561 92.3451 11.0533 92.3471 11.0505C92.3501 11.0467 92.3527 11.0428 92.3551 11.0388C92.3569 11.0357 92.3583 11.0325 92.3598 11.0293C92.3617 11.0253 92.3633 11.0212 92.3646 11.017C92.3656 11.0136 92.3662 11.0102 92.3669 11.0066C92.3678 11.0024 92.3683 10.9981 92.3686 10.9938C92.3686 10.9922 92.3692 10.9907 92.3692 10.9891L92.3697 5.54469ZM85.7042 8.01501L87.1722 9.01869C87.1996 9.03736 87.2344 9.04763 87.2705 9.04763C87.3065 9.04763 87.3414 9.03736 87.3687 9.01869L88.8368 8.01501L91.8931 10.8694H82.648L85.7042 8.01501ZM82.4726 10.664V5.80558L85.4761 7.85889L82.4726 10.664ZM89.0649 7.85889L92.0685 5.80558V10.664L89.0649 7.85889ZM91.8129 5.66436L88.7573 7.75358C88.7568 7.75392 88.7561 7.75412 88.7556 7.75454L88.754 7.7559L87.2705 8.77011L85.7871 7.7559L85.7854 7.75454L85.7837 7.75358L82.7279 5.66436H91.8129Z" fill="white"/>
</g>
<defs>
<clipPath id="clip0_722_108">
<rect width="13.4639" height="10.6984" fill="white" transform="translate(6.11993 36.1802)"/>
</clipPath>
<clipPath id="clip1_722_108">
<rect width="11.0159" height="8.75321" fill="white" transform="translate(45.0428 36.958)"/>
</clipPath>
<clipPath id="clip2_722_108">
<rect width="13.4639" height="10.6984" fill="white" transform="translate(61.9339 27.8159)"/>
</clipPath>
<clipPath id="clip3_722_108">
<rect width="11.0159" height="8.75321" fill="white" transform="translate(81.7625 3.89014)"/>
</clipPath>
</defs>
</svg>
